<svg width="81" height="81" viewBox="0 0 81 81" fill="none" xmlns="http://www.w3.org/2000/svg">
<path d="M65.6257 77.4981L41.572 77.6106L27.6652 64.2597L27.542 52.5915L15.6719 52.6028L2.81849 38.6322L2.81452 17.0876" stroke="#FAD24B" stroke-width="4" stroke-linecap="round" stroke-linejoin="round"/>
<path d="M77.5699 64.1702L71.2765 71.1351L47.5136 70.7597L34.9552 59.1124L33.9096 46.3671L22.5265 46.9061L9.5008 34.1909L8.42988 11.6969L14.7529 3.21614" stroke="#FF8C19" stroke-width="4.5" stroke-linecap="round" stroke-linejoin="round"/>
<path d="M54.9162 64.3692L77.9382 64.2447L77.7236 40.5356L64.1726 27.5379L52.5244 27.5274L52.2362 15.4355L38.4678 2.50016L15.8041 2.63503L15.8884 27.564L29.0814 39.723L40.8584 39.5766L41.3362 51.9108L54.9162 64.3692Z" fill="#FAD24B"/>
<path d="M40.8584 39.5766L41.3362 51.9108L54.9162 64.3692L77.9382 64.2447L77.7236 40.5356L64.1726 27.5379L52.5244 27.5274M40.8584 39.5766L52.1858 39.2085L64.3032 50.5607M40.8584 39.5766L29.0814 39.723L15.8884 27.564L15.8041 2.63503L38.4678 2.50016L52.2362 15.4355L52.5244 27.5274M28.29 16.2429L40.8762 27.5169L52.5244 27.5274" stroke="#BE4B0A" stroke-width="5" stroke-linecap="round" stroke-linejoin="round"/>
</svg>
